<svg width="371" height="371" viewBox="0 0 371 371" fill="none" xmlns="http://www.w3.org/2000/svg">
<path d="M34 87.5L186 11L337 91V283L186 361L34 283V87.5Z" fill="white"/>
<path d="M119.5 235L186.5 266.5L250.818 235.331L256 232V324.5L186.5 359.5L119.5 324.5V235Z" fill="#DDDDDD"/>
<path d="M204.5 87L269.5 55L337.5 91V176L267 209.5V121.5L204.5 87Z" fill="#DDDDDD" stroke="#DDDDDD"/>
<path d="M106.5 123L185 81L267 125L269 225.5L188.5 267L106.5 225.5V123Z" fill="#848484"/>
<path d="M168 88.9998L168 175L106.147 205.434L106.147 119.5L168 88.9998Z" fill="#636363"/>
<path d="M103.5 53.5L167.5 89L106 121V207L101 208.5L34.5 174V86.5L103.5 53.5Z" fill="#9D9D9D"/>
<path d="M201 87L267 121.5L268 206.5L201 174.5V87Z" fill="#121212"/>
<path d="M250 233.5L188 267L122.5 233.5L188 202.5L250 233.5Z" fill="#2E2E2E"/>
<path d="M34.5 86.5L185.5 10L337 90V285L187 360.5L34.5 283V86.5Z" stroke="#121212" stroke-width="6"/>
<path d="M34.4919 85.9761L185.5 10L337 89.4073V284.004L186.976 359L34 282L34.4919 85.9761Z" stroke="#121212"/>
<path d="M101 53L168 88.5V176L102 208.5L34.5 174.5V87.6252C34.5 86.8801 35.2856 86.3967 35.9507 86.7325L187 163V359" stroke="#121212" stroke-width="6"/>
<path d="M186.5 80.5L106 120.5V226L187.5 267.5" stroke="#121212" stroke-width="6"/>
<path d="M187 202L119 235.5V325" stroke="#121212" stroke-width="6"/>
<path d="M272 54.5L203 89V176L270.5 209.5L337 176V91.5988C337 90.8601 336.227 90.3764 335.562 90.6996L187 163V359" stroke="#121212" stroke-width="6"/>
<path d="M186.5 267.5L268 226V121.88L186.5 80.5L106 120.5" stroke="#121212" stroke-width="6"/>
<path d="M187 202L255 235.5V325" stroke="#121212" stroke-width="6"/>
</svg>
